<svg width="717" height="205" viewBox="0 0 717 205" fill="none" xmlns="http://www.w3.org/2000/svg">
<circle cx="102.5" cy="102.5" r="102.5" fill="#1DBF73"/>
<rect x="92.7334" y="55.9434" width="28.0666" height="28.2562" fill="#FBFCF7"/>
<rect x="120.8" y="55.9434" width="28.2562" height="28.2562" fill="#FBFCF7"/>
<rect x="120.8" y="84.1997" width="28.2562" height="28.0666" fill="#FBFCF7"/>
<rect x="120.8" y="95.1987" width="28.2562" height="45.3238" rx="14.1281" fill="#FBFCF7"/>
<rect x="147.539" y="112.267" width="28.2562" height="49.4958" rx="14.1281" transform="rotate(90 147.539 112.267)" fill="#FBFCF7"/>
<rect x="92.7334" y="101.268" width="28.2562" height="45.3238" rx="14.1281" transform="rotate(-180 92.7334 101.268)" fill="#FBFCF7"/>
<rect x="65.9941" y="84.1997" width="28.2563" height="49.4958" rx="14.1281" transform="rotate(-90 65.9941 84.1997)" fill="#FBFCF7"/>
<rect x="55.9434" y="120.8" width="28.2562" height="28.2562" fill="#E7E7E7"/>
<rect x="92.7334" y="112.267" width="28.0666" height="28.2562" fill="#FBFCF7"/>
<rect x="64.4775" y="84.1997" width="28.2562" height="28.0666" fill="#FBFCF7"/>
<path d="M336.212 117.283C335.138 128.66 330.938 137.547 323.614 143.943C316.29 150.291 306.549 153.465 294.391 153.465C285.895 153.465 278.399 151.463 271.905 147.459C265.46 143.406 260.479 137.669 256.964 130.247C253.448 122.825 251.617 114.207 251.471 104.393V94.4316C251.471 84.373 253.253 75.5107 256.817 67.8447C260.382 60.1787 265.484 54.2705 272.125 50.1201C278.814 45.9697 286.529 43.8945 295.27 43.8945C307.037 43.8945 316.51 47.0928 323.688 53.4893C330.865 59.8857 335.04 68.9189 336.212 80.5889H317.755C316.876 72.9229 314.63 67.4053 311.017 64.0361C307.452 60.6182 302.203 58.9092 295.27 58.9092C287.213 58.9092 281.012 61.8633 276.666 67.7715C272.369 73.6309 270.172 82.249 270.074 93.626V103.074C270.074 114.598 272.125 123.387 276.227 129.441C280.377 135.496 286.432 138.523 294.391 138.523C301.666 138.523 307.135 136.888 310.797 133.616C314.459 130.345 316.778 124.9 317.755 117.283H336.212ZM399.127 144.236C393.902 150.389 386.48 153.465 376.861 153.465C368.268 153.465 361.749 150.95 357.306 145.921C352.911 140.892 350.714 133.616 350.714 124.095V72.752H368.512V123.875C368.512 133.934 372.687 138.963 381.036 138.963C389.679 138.963 395.514 135.862 398.541 129.661V72.752H416.339V152H399.566L399.127 144.236ZM475.958 89.0117C473.614 88.6211 471.197 88.4258 468.707 88.4258C460.553 88.4258 455.06 91.5508 452.228 97.8008V152H434.43V72.752H451.422L451.861 81.6143C456.158 74.7295 462.115 71.2871 469.732 71.2871C472.271 71.2871 474.371 71.6289 476.031 72.3125L475.958 89.0117ZM531.622 130.467C531.622 127.293 530.304 124.876 527.667 123.216C525.079 121.556 520.758 120.091 514.703 118.821C508.648 117.552 503.595 115.94 499.542 113.987C490.655 109.69 486.212 103.465 486.212 95.3105C486.212 88.4746 489.093 82.7617 494.854 78.1719C500.616 73.582 507.94 71.2871 516.827 71.2871C526.3 71.2871 533.941 73.6309 539.752 78.3184C545.611 83.0059 548.541 89.085 548.541 96.5557H530.743C530.743 93.1377 529.474 90.3057 526.935 88.0596C524.396 85.7646 521.026 84.6172 516.827 84.6172C512.921 84.6172 509.723 85.5205 507.232 87.3271C504.791 89.1338 503.57 91.5508 503.57 94.5781C503.57 97.3125 504.718 99.4365 507.013 100.95C509.308 102.464 513.946 104.002 520.929 105.564C527.911 107.078 533.38 108.909 537.335 111.058C541.339 113.157 544.293 115.696 546.197 118.675C548.15 121.653 549.127 125.267 549.127 129.515C549.127 136.644 546.173 142.43 540.265 146.873C534.356 151.268 526.617 153.465 517.047 153.465C510.553 153.465 504.767 152.293 499.688 149.949C494.61 147.605 490.655 144.383 487.823 140.281C484.991 136.18 483.575 131.761 483.575 127.024H500.86C501.104 131.224 502.691 134.471 505.621 136.766C508.551 139.012 512.433 140.135 517.267 140.135C521.954 140.135 525.519 139.256 527.96 137.498C530.401 135.691 531.622 133.348 531.622 130.467ZM612.701 144.236C607.477 150.389 600.055 153.465 590.436 153.465C581.842 153.465 575.323 150.95 570.88 145.921C566.485 140.892 564.288 133.616 564.288 124.095V72.752H582.086V123.875C582.086 133.934 586.261 138.963 594.61 138.963C603.253 138.963 609.088 135.862 612.115 129.661V72.752H629.913V152H613.141L612.701 144.236ZM692.462 130.467C692.462 127.293 691.144 124.876 688.507 123.216C685.919 121.556 681.598 120.091 675.543 118.821C669.488 117.552 664.435 115.94 660.382 113.987C651.495 109.69 647.052 103.465 647.052 95.3105C647.052 88.4746 649.933 82.7617 655.694 78.1719C661.456 73.582 668.78 71.2871 677.667 71.2871C687.14 71.2871 694.781 73.6309 700.592 78.3184C706.451 83.0059 709.381 89.085 709.381 96.5557H691.583C691.583 93.1377 690.313 90.3057 687.774 88.0596C685.235 85.7646 681.866 84.6172 677.667 84.6172C673.761 84.6172 670.562 85.5205 668.072 87.3271C665.631 89.1338 664.41 91.5508 664.41 94.5781C664.41 97.3125 665.558 99.4365 667.853 100.95C670.147 102.464 674.786 104.002 681.769 105.564C688.751 107.078 694.22 108.909 698.175 111.058C702.179 113.157 705.133 115.696 707.037 118.675C708.99 121.653 709.967 125.267 709.967 129.515C709.967 136.644 707.013 142.43 701.104 146.873C695.196 151.268 687.457 153.465 677.887 153.465C671.393 153.465 665.606 152.293 660.528 149.949C655.45 147.605 651.495 144.383 648.663 140.281C645.831 136.18 644.415 131.761 644.415 127.024H661.7C661.944 131.224 663.531 134.471 666.461 136.766C669.391 139.012 673.272 140.135 678.106 140.135C682.794 140.135 686.358 139.256 688.8 137.498C691.241 135.691 692.462 133.348 692.462 130.467Z" fill="#393939"/>
</svg>
